<svg xmlns="http://www.w3.org/2000/svg" width="900" height="1200" viewBox="0 0 900 1200" role="img" aria-label="Ilustrasi floral elegan untuk undangan pernikahan Bella dan Deni">
  <defs>
    <linearGradient id="bg" x1="0" y1="0" x2="1" y2="1">
      <stop offset="0" stop-color="#FFFDF8"/>
      <stop offset="0.52" stop-color="#F7F0E6"/>
      <stop offset="1" stop-color="#F2D7D5"/>
    </linearGradient>
    <radialGradient id="glow" cx="50%" cy="40%" r="55%">
      <stop offset="0" stop-color="#FFFFFF" stop-opacity="0.92"/>
      <stop offset="1" stop-color="#FFFFFF" stop-opacity="0"/>
    </radialGradient>
  </defs>
  <rect width="900" height="1200" fill="url(#bg)"/>
  <circle cx="450" cy="500" r="390" fill="url(#glow)"/>
  <ellipse cx="450" cy="490" rx="250" ry="330" fill="none" stroke="#D7B879" stroke-width="3" opacity="0.55"/>
  <ellipse cx="450" cy="490" rx="212" ry="292" fill="none" stroke="#FFFFFF" stroke-width="2" opacity="0.95"/>
  <path d="M169 253 C270 152 365 116 464 119 C387 185 340 253 317 338 C272 275 224 247 169 253Z" fill="#F2D7D5" opacity="0.72"/>
  <path d="M694 951 C599 1042 500 1070 391 1054 C471 996 523 930 554 844 C596 911 642 946 694 951Z" fill="#F2D7D5" opacity="0.72"/>
  <path d="M160 282 C275 206 354 192 435 219" fill="none" stroke="#B58A45" stroke-width="3" stroke-linecap="round" opacity="0.45"/>
  <path d="M744 912 C630 988 549 1004 465 976" fill="none" stroke="#B58A45" stroke-width="3" stroke-linecap="round" opacity="0.45"/>
  <g opacity="0.75">
    <circle cx="272" cy="225" r="13" fill="#D7B879"/>
    <circle cx="310" cy="207" r="8" fill="#D9AAA9"/>
    <circle cx="645" cy="989" r="13" fill="#D7B879"/>
    <circle cx="604" cy="1010" r="8" fill="#D9AAA9"/>
  </g>
  <text x="450" y="505" text-anchor="middle" font-family="Georgia, serif" font-size="42" fill="#B58A45" opacity="0.8">Bella &amp; Deni</text>
</svg>
